<svg xmlns="http://www.w3.org/2000/svg" width="1100" height="360" viewBox="0 0 1100 360" role="img" aria-label="Training pipeline diagram">
  <rect width="1100" height="360" fill="#edf2f6"/>
  <g font-family="Arial, sans-serif" text-anchor="middle">
    <text x="550" y="52" font-size="32" font-weight="700" fill="#14213d">Kidney CT Classification Pipeline</text>
    <g transform="translate(70 120)">
      <rect width="190" height="120" rx="8" fill="#ffffff" stroke="#b7c2d0"/>
      <text x="95" y="50" font-size="22" font-weight="700" fill="#0f766e">Ingestion</text>
      <text x="95" y="82" font-size="15" fill="#5d6b82">Google Drive zip</text>
    </g>
    <g transform="translate(315 120)">
      <rect width="190" height="120" rx="8" fill="#ffffff" stroke="#b7c2d0"/>
      <text x="95" y="50" font-size="22" font-weight="700" fill="#0f766e">Base Model</text>
      <text x="95" y="82" font-size="15" fill="#5d6b82">VGG16 ImageNet</text>
    </g>
    <g transform="translate(560 120)">
      <rect width="190" height="120" rx="8" fill="#ffffff" stroke="#b7c2d0"/>
      <text x="95" y="50" font-size="22" font-weight="700" fill="#0f766e">Training</text>
      <text x="95" y="82" font-size="15" fill="#5d6b82">Keras generators</text>
    </g>
    <g transform="translate(805 120)">
      <rect width="190" height="120" rx="8" fill="#ffffff" stroke="#b7c2d0"/>
      <text x="95" y="50" font-size="22" font-weight="700" fill="#0f766e">Evaluation</text>
      <text x="95" y="82" font-size="15" fill="#5d6b82">Scores and MLflow</text>
    </g>
    <path d="M260 180h55M505 180h55M750 180h55" stroke="#14213d" stroke-width="4" stroke-linecap="round"/>
    <path d="M308 170l12 10-12 10M553 170l12 10-12 10M798 170l12 10-12 10" fill="none" stroke="#14213d" stroke-width="4" stroke-linecap="round" stroke-linejoin="round"/>
  </g>
</svg>

